<svg id="Capa_1" data-name="Capa 1" xmlns="http://www.w3.org/2000/svg" viewBox="0 0 230.23 237.44"><defs><style>.cls-1,.cls-2,.cls-4{fill:#fff;}.cls-1,.cls-2{stroke:#1d1d1b;}.cls-1,.cls-2,.cls-3{stroke-miterlimit:10;}.cls-1{stroke-width:0.5px;}.cls-2{stroke-width:4px;}.cls-3{fill:#1d1d1b;stroke:#fff;}.cls-4{font-size:26.22px;font-family:ArialMT, Arial;}.cls-5{letter-spacing:-0.07em;}.cls-6{letter-spacing:0em;}.cls-7{letter-spacing:-0.04em;}</style></defs><polygon class="cls-1" points="67.64 0.25 162.59 0.25 229.98 68.92 229.98 168.52 163.86 237.19 67.64 237.19 0.25 168.52 0.25 68.92 67.64 0.25"/><polygon class="cls-2" points="72.43 12.19 157.8 12.19 218.41 73.93 218.41 163.5 158.95 225.25 72.43 225.25 11.82 163.5 11.82 73.93 72.43 12.19"/><polygon class="cls-3" points="76.45 23.74 152.7 23.74 206.83 78.89 206.83 158.89 153.72 214.04 76.45 214.04 22.32 158.89 22.32 78.89 76.45 23.74"/><text class="cls-4" transform="translate(30.83 113.19)">ETIQUE<tspan class="cls-5" x="97.62" y="0">T</tspan><tspan x="111.69" y="0">ADO</tspan><tspan x="24.53" y="31.47">FRON</tspan><tspan class="cls-5" x="98.81" y="31.47">T</tspan><tspan class="cls-6" x="112.88" y="31.47">A</tspan><tspan class="cls-7" x="130.38" y="31.47">L</tspan></text></svg>